<svg width="22" height="17" viewBox="0 0 22 17" fill="none" xmlns="http://www.w3.org/2000/svg">
<path d="M10.5085 0.365234C4.70577 0.365234 0 4.09954 0 8.70616C0 12.3906 3.01106 15.5164 7.18871 16.6203C7.7142 16.6971 7.90601 16.4396 7.90601 16.2184C7.90601 16.02 7.89681 15.4956 7.89156 14.7998C4.96851 15.3035 4.35106 13.6814 4.35106 13.6814C3.87418 12.7177 3.18447 12.4612 3.18447 12.4612C2.22939 11.9441 3.25541 11.9545 3.25541 11.9545C4.31034 12.0137 4.86473 12.8143 4.86473 12.8143C5.80273 14.0885 7.32534 13.7209 7.9244 13.507C8.01899 12.968 8.29093 12.6004 8.59177 12.3917C6.25859 12.1808 3.80455 11.4653 3.80455 8.27C3.80455 7.35927 4.21444 6.6147 4.88706 6.03108C4.77802 5.82027 4.41806 4.97185 4.98953 3.82435C4.98953 3.82435 5.87236 3.60004 7.87973 4.679C8.71789 4.49416 9.61648 4.40173 10.5111 4.39862C11.4031 4.40277 12.303 4.49416 13.1425 4.68004C15.1486 3.60108 16.0301 3.82539 16.0301 3.82539C16.6029 4.97393 16.2429 5.82131 16.1352 6.03212C16.8091 6.61573 17.2151 7.36031 17.2151 8.27104C17.2151 11.4747 14.7584 12.1798 12.4173 12.3865C12.7944 12.644 13.1307 13.1528 13.1307 13.9307C13.1307 15.046 13.1176 15.9453 13.1176 16.2184C13.1176 16.4417 13.3067 16.7013 13.8401 16.6192C18.0112 15.5143 21.0196 12.3896 21.0196 8.70616C21.0196 4.09954 16.3139 0.365234 10.5085 0.365234Z" fill="#C4C4CC"/>
</svg>
